<?xml version="1.0" encoding="UTF-8"?>
<svg version="1.1" xmlns="http://www.w3.org/2000/svg" width="425" height="207">
<path d="M0 0 C140.25 0 280.5 0 425 0 C425 68.31 425 136.62 425 207 C284.75 207 144.5 207 0 207 C0 138.69 0 70.38 0 0 Z " fill="#F3F3F5" transform="translate(0,0)"/>
<path d="M0 0 C1.82340097 0.29198251 3.65262202 0.54714684 5.48242188 0.79589844 C12.58487055 1.80239518 19.25551195 3.82018316 26.05273438 6.04199219 C30.9213047 7.62784191 35.85981535 8.94134444 40.81054688 10.24511719 C44.09142442 11.33483723 46.9873324 12.69378461 50.04785156 14.2800293 C52.02021376 15.29801509 54.01146531 16.2532998 56.02148438 17.19433594 C68.8725296 23.30455947 81.49214922 31.13566564 88.09179688 44.33496094 C90.22138289 51.17363153 90.20649963 59.77463328 87.24023438 66.34667969 C74.41708744 88.54729802 45.76596772 97.80296369 22.48388672 104.19287109 C10.21699119 107.46658622 -2.0081715 109.79916027 -14.61181641 111.21533203 C-16.77547203 111.45908995 -18.93750311 111.71457758 -21.09960938 111.97167969 C-35.22685757 113.62130393 -49.29993781 114.52058049 -63.53320312 114.45996094 C-64.73759033 114.45585205 -65.94197754 114.45174316 -67.18286133 114.44750977 C-86.62804475 114.32786689 -105.64369327 113.02058965 -124.90820312 110.33496094 C-126.42897461 110.12830811 -126.42897461 110.12830811 -127.98046875 109.91748047 C-157.52382512 105.80895904 -196.53449302 96.89042468 -216.34570312 72.39746094 C-221.08401672 65.47540282 -224.35534027 57.80891864 -222.90820312 49.33496094 C-220.89888428 42.39151592 -216.94832369 37.38512159 -211.90820312 32.33496094 C-211.26109375 31.67625 -210.61398438 31.01753906 -209.94726562 30.33886719 C-190.5568767 11.84951864 -159.77882768 3.65557786 -133.90820312 0.33496094 C-129.86584249 -0.29100985 -125.82952094 -0.95522343 -121.79223633 -1.61303711 C-82.38304763 -7.90932782 -39.2405194 -6.41784196 0 0 Z " fill="#121212" transform="translate(285.908203125,50.6650390625)"/>
<path d="M0 0 C2.69418588 0.60939919 5.33837199 1.27060016 8 2 C16.6258361 4.32596236 25.16586787 6.33294448 34 7.6875 C35.13550293 7.86623657 35.13550293 7.86623657 36.29394531 8.04858398 C73.52106157 13.44862127 113.81239138 12.09557801 150.05712891 2.24975586 C151.18038574 1.94561768 152.30364258 1.64147949 153.4609375 1.328125 C154.45915527 1.0487207 155.45737305 0.76931641 156.48583984 0.48144531 C159 0 159 0 162 1 C162.29428304 9.8284911 162.29428304 9.8284911 160 13 C157.6015625 13.9765625 157.6015625 13.9765625 154.625 14.625 C153.19027344 14.95371094 153.19027344 14.95371094 151.7265625 15.2890625 C146.49858084 16.28643426 141.25521878 17.15894835 136 18 C134.91074219 18.17644043 133.82148438 18.35288086 132.69921875 18.53466797 C114.49677121 21.37104367 96.60318969 22.38899518 78.1875 22.375 C77.17199066 22.37663147 76.15648132 22.37826294 75.11019897 22.37994385 C64.51948324 22.37801474 54.41393089 22.09148301 44 20 C41.27423373 19.66304262 38.54906961 19.43333202 35.8125 19.1875 C27.97198969 18.38089883 20.24313462 17.08842201 12.5 15.625 C11.39503174 15.42801514 10.29006348 15.23103027 9.15161133 15.02807617 C8.12189209 14.82545166 7.09217285 14.62282715 6.03125 14.4140625 C5.10892578 14.2382666 4.18660156 14.0624707 3.23632812 13.88134766 C1 13 1 13 -0.30004883 11.04321289 C-1.47676034 7.60829883 -1.17776767 4.61460927 -1 1 C-0.67 0.67 -0.34 0.34 0 0 Z " fill="#EAEAEB" transform="translate(139,126)"/>
<path d="M0 0 C1.08627182 -0.00974854 2.17254364 -0.01949707 3.29173279 -0.02954102 C73.49427109 -0.5287036 73.49427109 -0.5287036 98.609375 9.23828125 C99.81210319 11.64373763 99.71008972 13.18825078 99.671875 15.86328125 C99.66285156 16.68054688 99.65382813 17.4978125 99.64453125 18.33984375 C99.62712891 19.27957031 99.62712891 19.27957031 99.609375 20.23828125 C96.33396415 21.3132158 94.2311129 21.13667979 90.9140625 20.27734375 C89.59341797 19.94089844 89.59341797 19.94089844 88.24609375 19.59765625 C87.33472656 19.3553125 86.42335938 19.11296875 85.484375 18.86328125 C84.10572266 18.51136719 84.10572266 18.51136719 82.69921875 18.15234375 C75.94775836 16.40747293 75.94775836 16.40747293 73.609375 15.23828125 C70.37987615 14.61490148 67.11571768 14.19826812 63.859375 13.73828125 C62.98410156 13.60808594 62.10882813 13.47789063 61.20703125 13.34375 C47.79196804 11.4273124 34.44089401 11.07576461 20.91503906 11.10791016 C18.24538459 11.11325919 15.57589933 11.10793749 12.90625 11.1015625 C-0.97285861 11.09490597 -14.7964247 11.36155629 -28.515625 13.67578125 C-29.299375 13.79759766 -30.083125 13.91941406 -30.890625 14.04492188 C-35.24095455 14.75166733 -39.21632576 15.79224525 -43.390625 17.23828125 C-45.73772787 17.79007484 -48.09247764 18.31015704 -50.453125 18.80078125 C-51.64035156 19.04957031 -52.82757813 19.29835938 -54.05078125 19.5546875 C-56.829307 20.1233916 -59.60877123 20.68611746 -62.390625 21.23828125 C-64.390625 18.23828125 -64.390625 18.23828125 -64.203125 14.73828125 C-63.37971646 11.19129061 -63.10539343 10.39416123 -60.390625 8.23828125 C-58.53149414 7.578125 -58.53149414 7.578125 -56.42578125 7.17578125 C-55.63534424 7.02020752 -54.84490723 6.86463379 -54.03051758 6.7043457 C-53.17997803 6.55054443 -52.32943848 6.39674316 -51.453125 6.23828125 C-50.57229248 6.07094482 -49.69145996 5.9036084 -48.78393555 5.73120117 C-39.36639783 3.97799393 -29.89296908 2.45564066 -20.390625 1.23828125 C-19.76789703 1.15503098 -19.14516907 1.0717807 -18.50357056 0.98600769 C-12.32977632 0.21998408 -6.21692079 0.04627943 0 0 Z " fill="#EBEBED" transform="translate(201.390625,62.76171875)"/>
<path d="M0 0 C0.63292969 0.25136719 1.26585937 0.50273438 1.91796875 0.76171875 C8.03342896 2.91891936 14.37942798 3.99575081 20.76269531 5.05249023 C22.43042065 5.33490517 24.09361162 5.64467859 25.75292969 5.97290039 C36.41503005 7.90996974 47.05761026 7.80229381 57.85546875 7.76171875 C58.85447205 7.75989594 59.85347534 7.75807312 60.88275146 7.75619507 C80.68338561 7.69530117 99.96307261 6.92893839 119.01220703 0.98754883 C123.72843281 -0.4450304 127.19133775 -0.77179544 132.10546875 0.44921875 C134.60191803 1.8513341 136.04426636 3.38801636 138.10546875 5.44921875 C138.10546875 6.10921875 138.10546875 6.76921875 138.10546875 7.44921875 C125.74962348 11.49257675 113.44423462 14.19016909 100.60546875 16.07421875 C99.77595703 16.19740479 98.94644531 16.32059082 98.09179688 16.44750977 C60.92571473 21.66272707 19.69610231 19.99160369 -15.89453125 7.44921875 C-15.89453125 6.78921875 -15.89453125 6.12921875 -15.89453125 5.44921875 C-14.1015625 3.94140625 -14.1015625 3.94140625 -11.70703125 2.32421875 C-10.92972656 1.78539063 -10.15242187 1.2465625 -9.3515625 0.69140625 C-6.01795723 -0.99394586 -3.56428913 -1.03621602 0 0 Z " fill="#E6E6E8" transform="translate(157.89453125,115.55078125)"/>
<path d="M0 0 C-1.18806651 3.56419954 -2.67325199 4.54290362 -5.93359375 6.28051758 C-13.2245092 8.81907238 -23.55635651 4.61857042 -30.76953125 2.90429688 C-46.18240439 -0.60629598 -61.43787396 -1.37573834 -77.1875 -1.3125 C-78.53371933 -1.31076279 -78.53371933 -1.31076279 -79.90713501 -1.30899048 C-93.46943572 -1.27443089 -106.6678411 -0.67620788 -120 2 C-120.70060547 2.13341797 -121.40121094 2.26683594 -122.12304688 2.40429688 C-127.47692643 3.4301594 -132.75361673 4.55614341 -137.9375 6.25 C-141.75980628 7.18607501 -144.20134436 7.03599699 -148 6 C-150.24732991 4.49517997 -152.02704789 2.87671055 -154 1 C-153 -1 -153 -1 -150.48046875 -2 C-149.39378906 -2.33 -148.30710938 -2.66 -147.1875 -3 C-146.12917969 -3.33 -145.07085937 -3.66 -143.98046875 -4 C-139.73565584 -5.16117781 -135.4156436 -5.80314446 -131.07348633 -6.49121094 C-128.30488723 -6.94952856 -125.57318861 -7.49007655 -122.828125 -8.0703125 C-87.84051635 -14.95723665 -32.42115817 -17.51595606 0 0 Z " fill="#EBEBEC" transform="translate(296,88)"/>
<path d="M0 0 C7.6836232 0.88338662 15.27584203 2.20601294 22.89257812 3.5390625 C23.90384766 3.71179688 24.91511719 3.88453125 25.95703125 4.0625 C27.30244995 4.29646484 27.30244995 4.29646484 28.67504883 4.53515625 C38.1325466 5.85735874 47.50497125 6.17066065 57.046875 6.203125 C57.70313118 6.20595238 58.35938736 6.20877975 59.03553009 6.21169281 C62.51799398 6.22658021 66.00041767 6.23587191 69.48291016 6.24023438 C72.30628586 6.24459056 75.12935106 6.25838539 77.95263672 6.28125 C99.44402604 6.45175831 120.22330258 5.25834784 141.234375 0.453125 C144 0 144 0 147 1 C120.23294249 15.80060827 92.00487651 17.49395068 62 17 C61.22946289 16.98743164 60.45892578 16.97486328 59.66503906 16.96191406 C39.45609834 16.5002646 17.32137495 11.67906803 0 1 C0 0.67 0 0.34 0 0 Z " fill="#E4E4E6" transform="translate(146,144)"/>
<path d="M0 0 C0.92740997 -0.00608276 1.85481995 -0.01216553 2.81033325 -0.01843262 C28.03979889 -0.12650916 50.21308651 4.17026368 72.8125 15.4375 C68.94848772 16.85312432 65.92672136 16.04423189 61.96484375 15.22265625 C41.07818571 11.19051772 20.71081843 9.83309324 -0.5625 9.875 C-1.79815704 9.87291534 -3.03381409 9.87083069 -4.30691528 9.86868286 C-24.89561521 9.8726123 -45.58334353 10.85751516 -65.61328125 15.984375 C-68.21810068 16.44288646 -69.71773727 16.30573013 -72.1875 15.4375 C-63.40809088 10.75163846 -54.91627703 6.7938462 -45.1875 4.4375 C-44.49366211 4.25558105 -43.79982422 4.07366211 -43.08496094 3.88623047 C-28.83262228 0.27584147 -14.61515025 0.03621828 0 0 Z " fill="#E8E8EA" transform="translate(219.1875,49.5625)"/>
<path d="M0 0 C0.495 0.99 0.495 0.99 1 2 C-2.07727141 2.81643799 -5.16263192 3.59769941 -8.25 4.375 C-9.08402344 4.59671875 -9.91804688 4.8184375 -10.77734375 5.046875 C-26.88993022 9.04561909 -43.60302511 9.35274385 -60.1184082 9.31567383 C-63.06433676 9.31249802 -66.00927122 9.33615864 -68.95507812 9.36132812 C-85.35473666 9.41525722 -102.25394852 7.95468836 -118 3 C-118.66 2.34 -119.32 1.68 -120 1 C-110.34001102 -4.04953969 -102.32878243 -3.39531689 -91.83984375 -1.51953125 C-81.66853172 0.14141692 -71.69617199 0.42761783 -61.40649414 0.33618164 C-58.5395949 0.31230927 -55.67361622 0.31569055 -52.80664062 0.32226562 C-41.43560652 0.30469459 -30.59230036 -0.15142255 -19.5625 -3.1875 C-13.00041429 -4.68411604 -6.18655652 -2.43501001 0 0 Z " fill="#E8E8EA" transform="translate(279,111)"/>
<path d="M0 0 C0.495 0.99 0.495 0.99 1 2 C-0.7377501 2.71790031 -2.4913729 3.39737821 -4.25 4.0625 C-5.22453125 4.44535156 -6.1990625 4.82820313 -7.203125 5.22265625 C-15.23545631 6.8671356 -23.63048854 4.95380514 -31.67358398 3.84448242 C-53.60781628 0.88260593 -75.41587341 1.00046993 -97.1875 5.125 C-105.93311503 6.7706089 -111.83845179 5.30594358 -120 2 C-119 0 -119 0 -117.21142578 -0.7746582 C-81.76624266 -11.35320326 -35.02741319 -11.07781185 0 0 Z " fill="#E7E7E9" transform="translate(279,97)"/>
<path d="M0 0 C0.66 0.33 1.32 0.66 2 1 C1.26394531 1.61746094 0.52789062 2.23492187 -0.23046875 2.87109375 C-1.20628906 3.71800781 -2.18210937 4.56492187 -3.1875 5.4375 C-4.63189453 6.67306641 -4.63189453 6.67306641 -6.10546875 7.93359375 C-11.31189356 13.06915309 -14.19921316 18.46084193 -14.62890625 25.8125 C-14.63284254 27.87511502 -14.61030476 29.93793527 -14.5625 32 C-14.57345703 33.02867188 -14.58441406 34.05734375 -14.59570312 35.1171875 C-14.51389949 43.69020816 -12.55999683 50.84131798 -6.625 57.25 C-6.02816406 57.89453125 -5.43132812 58.5390625 -4.81640625 59.203125 C-2.33451059 61.65833361 0.24817468 63.8522339 3 66 C2.01 66.495 2.01 66.495 1 67 C-10.52377714 61.27161078 -22.18542024 52.75789561 -28 41 C-30.1214537 32.48815511 -28.56831292 26.72569577 -24.4375 19.125 C-18.00208316 10.87446559 -9.54209338 4.31809922 0 0 Z " fill="#E9E9EB" transform="translate(96,72)"/>
<path d="M0 0 C4.78776397 1.3752088 8.74078683 3.4677426 12.875 6.1875 C13.79635742 6.79078125 13.79635742 6.79078125 14.73632812 7.40625 C19.51277022 10.58381972 24.03498705 13.82388682 28 18 C28.598125 18.61746094 29.19625 19.23492187 29.8125 19.87109375 C34.53200568 25.65030325 35.12213301 31.90526734 34.640625 39.12109375 C33.64777579 45.13267462 31.1900861 48.69330668 27 53 C26.33613281 53.69351563 25.67226563 54.38703125 24.98828125 55.1015625 C19.15423505 60.68758086 12.21054125 65.3688666 5 69 C4.34 68.67 3.68 68.34 3 68 C3.81984375 67.29875 4.6396875 66.5975 5.484375 65.875 C15.97144183 56.76652855 15.97144183 56.76652855 20.16113281 43.7668457 C20.20680675 40.94860456 20.23529116 38.13108064 20.25 35.3125 C20.270625 34.34376953 20.29125 33.37503906 20.3125 32.37695312 C20.36542239 22.59292665 17.99704218 16.34068843 11.2734375 9.1171875 C8.30933758 6.35680579 5.14178561 4.19432908 1.6875 2.09375 C1.130625 1.7328125 0.57375 1.371875 0 1 C0 0.67 0 0.34 0 0 Z " fill="#E8E8E9" transform="translate(337,70)"/>
<path d="M0 0 C1.14831299 0.11746582 1.14831299 0.11746582 2.31982422 0.23730469 C7.3546875 0.8546875 7.3546875 0.8546875 9.625 3.125 C-1.40956407 4.80583748 -12.20744401 5.44235004 -23.36572266 5.38574219 C-25.87296715 5.3750087 -28.37949553 5.38571793 -30.88671875 5.3984375 C-41.19663957 5.4060161 -51.18307356 4.6774829 -61.375 3.125 C-61.045 2.465 -60.715 1.805 -60.375 1.125 C-41.63007482 -3.28236993 -19.07392668 -1.95765683 0 0 Z " fill="#E1E1E3" transform="translate(245.375,102.875)"/>
<path d="M0 0 C0.10957031 0.59167969 0.21914062 1.18335937 0.33203125 1.79296875 C1.37707796 7.0172179 1.37707796 7.0172179 3.75 11.75 C5 14 5 14 4.3125 16.5 C3.6628125 17.7375 3.6628125 17.7375 3 19 C1.21745167 22.9845198 0.51010953 26.66406895 0 31 C-6.06761424 27.38832486 -10.09676232 22.85485653 -14 17 C-14 11.70486579 -10.31038813 7.81172095 -7 4 C-2.6 0 -2.6 0 0 0 Z " fill="#EAEAEC" transform="translate(100,90)"/>
<path d="M0 0 C5.78728443 2.68377366 11.52402671 6.96481509 14 13 C13.35777117 19.38017498 9.06642838 24.49352811 4.203125 28.46875 C2.84231398 29.37595735 1.42638236 30.19983428 0 31 C-0.10957031 30.33613281 -0.21914063 29.67226562 -0.33203125 28.98828125 C-1.30907691 23.32724491 -1.30907691 23.32724491 -3.75 18.1875 C-4.36875 17.1046875 -4.36875 17.1046875 -5 16 C-4.3125 13.5 -4.3125 13.5 -3 11 C-1.4019746 7.33394173 -0.55324827 3.96494593 0 0 Z " fill="#E8E8EA" transform="translate(339,90)"/>
<path d="M0 0 C1.33633624 0.66062672 2.66896548 1.3287554 4 2 C4.71800781 2.34675781 5.43601562 2.69351563 6.17578125 3.05078125 C8.66438185 4.52028398 10.27148817 5.66243437 12 8 C12.39865039 12.4701997 11.83466684 16.60495741 11 21 C5.52458494 20.23124545 0.78189496 19.28614762 -3 15 C-3.88030726 11.2152395 -3.83037547 7.79035331 -3 4 C-1.45703125 1.66015625 -1.45703125 1.66015625 0 0 Z " fill="#E5E5E7" transform="translate(107,109)"/>
<path d="M0 0 C3 1 3 1 5 4 C5.30078125 6.375 5.30078125 6.375 5.3125 9 C5.32925781 9.86625 5.34601563 10.7325 5.36328125 11.625 C4.91595734 14.54944021 4.36237381 15.25586444 2 17 C-1.59546292 18.84716257 -5.29060413 20.3853218 -9 22 C-9.33 17.05 -9.66 12.1 -10 7 C-7.68880208 5.47005208 -5.37760417 3.94010417 -3.06640625 2.41015625 C-1.10014075 1.16197019 -1.10014075 1.16197019 0 0 Z " fill="#E6E6E8" transform="translate(330,109)"/>
<path d="M0 0 C0.96467859 4.76392644 1.58065839 9.15414177 1 14 C-1.77923226 17.41327765 -4.88273892 19.45922373 -9 21 C-12 20 -12 20 -13.1796875 18.265625 C-14.13874367 15.61680319 -14.19893014 13.55934533 -14.125 10.75 C-14.09792969 9.41195312 -14.09792969 9.41195312 -14.0703125 8.046875 C-14.04710938 7.37140625 -14.02390625 6.6959375 -14 6 C-12.2335343 4.9923048 -10.46166177 3.99408286 -8.6875 3 C-7.20830078 2.1646875 -7.20830078 2.1646875 -5.69921875 1.3125 C-3 0 -3 0 0 0 Z " fill="#E4E4E6" transform="translate(118,80)"/>
<path d="M0 0 C10.40375119 3.32383455 10.40375119 3.32383455 14 7 C15.33106544 11.59514312 14.31704625 15.24701516 12.5 19.5625 C12.005 20.366875 11.51 21.17125 11 22 C9.66486326 21.33695241 8.33195498 20.66941627 7 20 C5.92298828 19.49726562 5.92298828 19.49726562 4.82421875 18.984375 C2.27912995 17.51408604 0.72476493 16.40525532 -1 14 C-1.40031063 9.20694741 -0.82833321 4.72408786 0 0 Z " fill="#E7E7E9" transform="translate(321,80)"/>
<path d="M0 0 C0.66 0.33 1.32 0.66 2 1 C1.25234375 1.51949219 0.5046875 2.03898437 -0.265625 2.57421875 C-1.25046875 3.27160156 -2.2353125 3.96898438 -3.25 4.6875 C-4.22453125 5.37199219 -5.1990625 6.05648437 -6.203125 6.76171875 C-8.96475426 8.97179356 -10.90814464 11.16335219 -13 14 C-16.5010557 18.60138749 -20.21807345 21.84819792 -24.83984375 25.3203125 C-27.47124127 27.3664263 -29.72084285 29.57380046 -32 32 C-32.84043785 26.53715399 -30.89799352 23.49768548 -27.8125 19.2265625 C-21.35556343 11.2945499 -12.87492421 6.75442368 -4 2 C-3.24203125 1.57332031 -2.4840625 1.14664063 -1.703125 0.70703125 C-1.14109375 0.47371094 -0.5790625 0.24039063 0 0 Z " fill="#DCDCDD" transform="translate(117,66)"/>
<path d="M0 0 C1.66582578 1.42785067 3.33145523 2.85592116 4.99609375 4.28515625 C6.27624389 5.38064535 7.55977737 6.47220121 8.84765625 7.55859375 C13.76448769 11.71898958 18.22017659 16.06960955 22.375 21 C25.57542664 24.71390168 28.90310844 27.32447898 33 30 C32.01 30.495 32.01 30.495 31 31 C18.22948069 25.7088897 6.33469324 17.5812005 0 5 C-0.25 2.0625 -0.25 2.0625 0 0 Z " fill="#D9D9DB" transform="translate(85,113)"/>
<path d="M0 0 C1.70884005 1.62339805 3.37446717 3.29319053 5 5 C5.99 5.66 6.98 6.32 8 7 C6.56236768 11.31289697 3.76650155 13.55338361 0 16 C-3.15307205 16.31530721 -4.39189162 15.46532402 -6.86328125 13.57421875 C-8.62476163 12.09514003 -10.32632903 10.57720578 -12 9 C-10.65928568 5.87833681 -9.34647582 4.1898025 -6.5625 2.25 C-5.96566406 1.82203125 -5.36882812 1.3940625 -4.75390625 0.953125 C-3 0 -3 0 0 0 Z " fill="#E5E5E7" transform="translate(123,97)"/>
<path d="M0 0 C0.33 0 0.66 0 1 0 C1.49660123 7.12829687 -1.59936958 10.69211051 -6 16 C-10.65268297 21.20323246 -16.37568377 24.56317571 -22.375 28 C-23.08970459 28.41064697 -23.80440918 28.82129395 -24.54077148 29.24438477 C-26.32474104 30.23060454 -28.1594308 31.1239396 -30 32 C-30.66 31.67 -31.32 31.34 -32 31 C-30.98679687 30.22076172 -30.98679687 30.22076172 -29.953125 29.42578125 C-29.06109375 28.72839844 -28.1690625 28.03101563 -27.25 27.3125 C-26.36828125 26.62800781 -25.4865625 25.94351563 -24.578125 25.23828125 C-21.25636268 22.3543876 -18.80447986 19.12052551 -16.25 15.5625 C-14.26657475 13.30359903 -12.54038119 11.85617625 -10.125 10.125 C-6.55032044 7.55924869 -3.85922881 4.75739431 -1.12890625 1.3203125 C-0.75636719 0.88460937 -0.38382812 0.44890625 0 0 Z " fill="#DFDFE1" transform="translate(353,112)"/>
<path d="M0 0 C3.43950364 0.61198376 5.51564485 1.92058847 8.25 4.0625 C8.95640625 4.61035156 9.6628125 5.15820312 10.390625 5.72265625 C11.18726563 6.35494141 11.18726563 6.35494141 12 7 C10.66532324 10.0856141 9.34911605 11.84376111 6.625 13.8125 C6.03976562 14.25207031 5.45453125 14.69164063 4.8515625 15.14453125 C3 16 3 16 1.0078125 15.8203125 C-1.31063726 14.87308595 -2.8661444 13.70886099 -4.75 12.0625 C-5.36359375 11.53785156 -5.9771875 11.01320313 -6.609375 10.47265625 C-8 9 -8 9 -8 7 C-6.50390625 5.78125 -6.50390625 5.78125 -4.5625 4.5 C-1.77468153 2.7134637 -1.77468153 2.7134637 0 0 Z " fill="#E7E7E9" transform="translate(316,97)"/>
<path d="M0 0 C10.5381928 1.51642483 22.56005435 10.19255109 28.953125 18.5546875 C31.70236244 22.88409412 33.35259789 25.77598393 33 31 C32.30777344 30.28457031 31.61554688 29.56914063 30.90234375 28.83203125 C28.47389846 26.40187639 25.90587955 24.22255239 23.24316406 22.05541992 C18.23930708 17.98269902 14.09307544 14.18055111 10.4765625 8.7890625 C8.06453853 5.86655727 4.97295208 4.07602874 1.7578125 2.12890625 C1.17773438 1.75636719 0.59765625 1.38382812 0 1 C0 0.67 0 0.34 0 0 Z " fill="#E1E1E3" transform="translate(321,67)"/>
<path d="M0 0 C1.85960834 3.71921669 1.22582006 7.75798968 0.5 11.75 C-1.79280392 15.18920588 -5.0789511 16.04497225 -9 17 C-9.99 17 -10.98 17 -12 17 C-12.33 13.04 -12.66 9.08 -13 5 C-10.339375 3.7625 -10.339375 3.7625 -7.625 2.5 C-6.62726563 2.0359375 -5.62953125 1.571875 -4.6015625 1.09375 C-2 0 -2 0 0 0 Z " fill="#E1E1E3" transform="translate(317,119)"/>
<path d="M0 0 C5.94 2.475 5.94 2.475 12 5 C11.67 8.96 11.34 12.92 11 17 C2.76765376 16.0501139 2.76765376 16.0501139 0 14 C-2.24849564 10.06513263 -2.33704163 6.46580163 -2 2 C-1.34 1.34 -0.68 0.68 0 0 Z " fill="#E2E2E4" transform="translate(123,119)"/>
<path d="M0 0 C0.33 3.96 0.66 7.92 1 12 C-8.625 17 -8.625 17 -12 17 C-13.21260877 13.36217368 -13.39544552 10.82264001 -13 7 C-9.44689151 2.43171765 -5.8357246 0 0 0 Z " fill="#E3E3E5" transform="translate(134,74)"/>
<path d="M0 0 C9.75 2.75 9.75 2.75 12 5 C12.1953125 7.8203125 12.1953125 7.8203125 12.125 11.125 C12.10695313 12.22070312 12.08890625 13.31640625 12.0703125 14.4453125 C12.04710937 15.28835937 12.02390625 16.13140625 12 17 C7.04927275 16.17632384 3.42043547 14.32260169 -1 12 C-0.67 8.04 -0.34 4.08 0 0 Z " fill="#E6E6E8" transform="translate(305,74)"/>
<path d="M0 0 C2.2297702 1.47522757 4.00870183 3.19393887 6 5 C5 8 5 8 3.0390625 9.16796875 C2.24242187 9.50441406 1.44578125 9.84085938 0.625 10.1875 C-0.16648437 10.53167969 -0.95796875 10.87585938 -1.7734375 11.23046875 C-4 12 -4 12 -7 12 C-8.70884005 10.37660195 -10.37446717 8.70680947 -12 7 C-12.99 6.34 -13.98 5.68 -15 5 C-15 4.34 -15 3.68 -15 3 C-13.4447088 2.29634398 -11.88035173 1.61270622 -10.3125 0.9375 C-9.44238281 0.55464844 -8.57226562 0.17179687 -7.67578125 -0.22265625 C-4.60007204 -1.11618345 -3.02318373 -0.99446833 0 0 Z " fill="#E3E3E5" transform="translate(307,109)"/>
<path d="M0 0 C3.39116006 1.22658981 6.66049773 2.55507896 9.9375 4.0625 C8.67846512 7.46189417 6.60777271 10.00651241 3.78515625 12.28125 C1.23220327 13.36072272 -0.08460358 12.8576265 -2.6875 12 C-5.55213987 10.82901563 -8.305255 9.46607495 -11.0625 8.0625 C-11.0625 6.0625 -11.0625 6.0625 -9.5234375 4.51953125 C-3.89156196 0.07941963 -3.89156196 0.07941963 0 0 Z " fill="#E4E4E6" transform="translate(303.0625,89.9375)"/>
<path d="M0 0 C2.17853592 1.52117221 4.02560735 3.20110892 6 5 C6.66 5.33 7.32 5.66 8 6 C8 6.66 8 7.32 8 8 C6.281952 8.89663451 4.54996503 9.76659588 2.8125 10.625 C1.84957031 11.11226562 0.88664063 11.59953125 -0.10546875 12.1015625 C-3 13 -3 13 -5.6875 12.3046875 C-8.67730478 10.61787196 -10.74666982 8.57523449 -13 6 C-13 5.34 -13 4.68 -13 4 C-4.06952797 -0.96383557 -4.06952797 -0.96383557 0 0 Z " fill="#E4E4E6" transform="translate(139,90)"/>
<path d="M0 0 C3.7141611 1.28858651 6.72171051 2.99121052 10.0625 5.0625 C9.27875 5.825625 8.495 6.58875 7.6875 7.375 C4.98992283 9.97141805 4.98992283 9.97141805 3.0625 13.0625 C-1.50204251 12.51910208 -4.9103176 11.26786179 -8.9375 9.0625 C-8.9375 5.0625 -8.9375 5.0625 -6.3125 2.25 C-3.8823585 0.40605188 -3.16467212 0.06733345 0 0 Z " fill="#E5E5E6" transform="translate(135.9375,107.9375)"/>
<path d="M0 0 C0.56847656 0.27714844 1.13695312 0.55429688 1.72265625 0.83984375 C-1.71526045 4.27776045 -6.60033945 5.74786711 -11.4375 5.9140625 C-15.88806553 5.47672369 -19.43027667 4.05190732 -23.27734375 1.83984375 C-23.27734375 1.17984375 -23.27734375 0.51984375 -23.27734375 -0.16015625 C-14.34181983 -4.8811927 -9.06330288 -4.25173307 0 0 Z " fill="#E0E0E2" transform="translate(163.27734375,104.16015625)"/>
<path d="M0 0 C-0.33 0.99 -0.66 1.98 -1 3 C-6.67479232 5.78761728 -10.86974621 6.64529674 -17 5 C-19.42288681 4.12187594 -21.67040694 3.11626334 -24 2 C-24 1.34 -24 0.68 -24 0 C-14.3782164 -3.98910246 -9.40459126 -4.32611198 0 0 Z " fill="#E0E0E1" transform="translate(298,104)"/>
<path d="M0 0 C0.66 0.33 1.32 0.66 2 1 C1.45730469 1.39832031 0.91460937 1.79664062 0.35546875 2.20703125 C-0.35996094 2.73683594 -1.07539062 3.26664062 -1.8125 3.8125 C-2.87404297 4.59560547 -2.87404297 4.59560547 -3.95703125 5.39453125 C-5.98383483 6.91199254 -5.98383483 6.91199254 -7.5078125 8.5625 C-9.23097963 10.2225144 -10.91610894 11.14038212 -13.0625 12.1875 C-13.75472656 12.53167969 -14.44695312 12.87585938 -15.16015625 13.23046875 C-17 14 -17 14 -19 14 C-19 13.34 -19 12.68 -19 12 C-13.42210783 7.37698708 -6.72030434 2.78081559 0 0 Z " fill="#BFBFC1" transform="translate(129,65)"/>
<path d="M0 0 C0.66 0.33 1.32 0.66 2 1 C-10.32038053 11.36558111 -10.32038053 11.36558111 -17 14 C-17.66 13.67 -18.32 13.34 -19 13 C-7.26837061 2.90734824 -7.26837061 2.90734824 0 0 Z " fill="#C9C9CB" transform="translate(328,131)"/>
<path d="M0 0 C8.36296819 2.05646759 13.62749139 6.31834279 20 12 C19.01 12.495 19.01 12.495 18 13 C11.19371066 10.09914368 5.32747481 6.09069815 0 1 C0 0.67 0 0.34 0 0 Z " fill="#DFDFE1" transform="translate(110,132)"/>
<path d="M0 0 C3.87249706 1.41779947 7.20748064 3.22984788 10.6875 5.4375 C12.11642578 6.33275391 12.11642578 6.33275391 13.57421875 7.24609375 C16 9 16 9 18 12 C9.96087099 10.418532 5.14385881 7.40827104 0 1 C0 0.67 0 0.34 0 0 Z " fill="#C5C5C6" transform="translate(310,66)"/>
<path d="M0 0 C0.66 0.33 1.32 0.66 2 1 C-1.63 4.63 -5.26 8.26 -9 12 C-9.66 11.67 -10.32 11.34 -11 11 C-9.92173635 9.72486237 -8.83714481 8.45507431 -7.75 7.1875 C-7.14671875 6.47980469 -6.5434375 5.77210937 -5.921875 5.04296875 C-4.07629602 3.08110329 -2.20054668 1.54330375 0 0 Z " fill="#CFCFD0" transform="translate(99,76)"/>
<path d="M0 0 C-6.75 4 -6.75 4 -9 4 C-9 3.34 -9 2.68 -9 2 C-10.98 2 -12.96 2 -15 2 C-15 1.67 -15 1.34 -15 1 C-13.0641649 0.63684334 -11.12624752 0.28477269 -9.1875 -0.0625 C-8.10855469 -0.25972656 -7.02960938 -0.45695313 -5.91796875 -0.66015625 C-3 -1 -3 -1 0 0 Z " fill="#B7B7B8" transform="translate(293,145)"/>
<path d="M0 0 C4.69023454 0.56606279 9.34500026 1.18537505 14 2 C14 2.33 14 2.66 14 3 C12.35 3 10.7 3 9 3 C9 3.66 9 4.32 9 5 C5.22454612 3.90931332 2.52956528 3.0916909 0 0 Z " fill="#B8B8BA" transform="translate(146,144)"/>
<path d="M0 0 C0.66 0.33 1.32 0.66 2 1 C0.56284053 4.64757321 -1.07711644 5.97325575 -4.5 7.8125 C-5.2940625 8.25207031 -6.088125 8.69164062 -6.90625 9.14453125 C-7.5971875 9.42683594 -8.288125 9.70914063 -9 10 C-9.66 9.67 -10.32 9.34 -11 9 C-9.93458984 8.15115234 -9.93458984 8.15115234 -8.84765625 7.28515625 C-7.92855469 6.55167969 -7.00945312 5.81820312 -6.0625 5.0625 C-5.14597656 4.33160156 -4.22945313 3.60070312 -3.28515625 2.84765625 C-1.59148731 1.48061289 -1.59148731 1.48061289 0 0 Z " fill="#BBBBBC" transform="translate(332,134)"/>
<path d="M0 0 C1.29608947 0.93137592 2.58671632 1.8703566 3.875 2.8125 C4.59429687 3.33457031 5.31359375 3.85664063 6.0546875 4.39453125 C8 6 8 6 10 9 C5.38486888 7.68139111 1.90102388 5.78644563 -2 3 C-1.34 2.67 -0.68 2.34 0 2 C0 1.34 0 0.68 0 0 Z " fill="#B3B3B5" transform="translate(89,130)"/>
<path d="M0 0 C0 3.29052817 -0.14241486 4.33476915 -2 7 C-4.27159023 8.65306084 -6.44051941 9.76596472 -9 11 C-9.66 10.67 -10.32 10.34 -11 10 C-5.555 5.05 -5.555 5.05 0 0 Z " fill="#BDBDBE" transform="translate(351,128)"/>
<path d="M0 0 C0 0.33 0 0.66 0 1 C-2.31 1.33 -4.62 1.66 -7 2 C-6.67 2.66 -6.34 3.32 -6 4 C-9.3 3.67 -12.6 3.34 -16 3 C-15.67 2.34 -15.34 1.68 -15 1 C-9.96109772 -0.0283474 -5.11310018 -0.08970351 0 0 Z " fill="#9E9E9F" transform="translate(200,103)"/>
<path d="M0 0 C3.375 0.25 3.375 0.25 7 1 C8.25 3 8.25 3 9 5 C9.99 5.33 10.98 5.66 12 6 C11.01 6.495 11.01 6.495 10 7 C7.6171875 5.8203125 7.6171875 5.8203125 4.875 4.125 C3.96492187 3.57070312 3.05484375 3.01640625 2.1171875 2.4453125 C1.41851562 1.96835938 0.71984375 1.49140625 0 1 C0 0.67 0 0.34 0 0 Z " fill="#B0B0B1" transform="translate(131,140)"/>
<path d="M0 0 C-1.07449665 3.22348996 -1.86324569 4.04138081 -4.375 6.1875 C-4.98085937 6.71730469 -5.58671875 7.24710937 -6.2109375 7.79296875 C-8 9 -8 9 -11 9 C-3.8 0 -3.8 0 0 0 Z " fill="#CDCDCF" transform="translate(100,90)"/>
<path d="M0 0 C0 3 0 3 -1.5 4.6875 C-1.995 5.120625 -2.49 5.55375 -3 6 C-2.34 6.66 -1.68 7.32 -1 8 C-5.75 11 -5.75 11 -8 11 C-6.68206814 5.33289301 -4.51290803 3.33562767 0 0 Z " fill="#242424" transform="translate(102,82)"/>
<path d="M0 0 C4.61513112 1.31860889 8.09897612 3.21355437 12 6 C9 7 9 7 6.5625 6.375 C3.50443399 4.73408653 1.99374101 2.80600586 0 0 Z " fill="#B2B2B4" transform="translate(297,64)"/>
<path d="M0 0 C0.66 0.33 1.32 0.66 2 1 C0.58833114 1.98635837 -0.82956184 2.96381255 -2.25 3.9375 C-3.43335938 4.75541016 -3.43335938 4.75541016 -4.640625 5.58984375 C-6.82636993 6.89622441 -8.5153801 7.54980511 -11 8 C-7.6378363 4.34117479 -4.63949148 1.85579659 0 0 Z " fill="#ADADAE" transform="translate(307,139)"/>
<path d="M0 0 C0.66 0.33 1.32 0.66 2 1 C-1.96 4.465 -1.96 4.465 -6 8 C-7.32 7.34 -8.64 6.68 -10 6 C-8.3811004 4.96951963 -6.75467511 3.95085322 -5.125 2.9375 C-4.22007813 2.36902344 -3.31515625 1.80054687 -2.3828125 1.21484375 C-1.20332031 0.61349609 -1.20332031 0.61349609 0 0 Z " fill="#BDBDBE" transform="translate(96,72)"/>
<path d="M0 0 C0.66 0.33 1.32 0.66 2 1 C-0.75264252 4.05849168 -3.00751252 5.87391379 -7 7 C-7.99 6.67 -8.98 6.34 -10 6 C-8.3811004 4.96951963 -6.75467511 3.95085322 -5.125 2.9375 C-4.22007812 2.36902344 -3.31515625 1.80054687 -2.3828125 1.21484375 C-1.20332031 0.61349609 -1.20332031 0.61349609 0 0 Z " fill="#B0B0B1" transform="translate(140,64)"/>
<path d="M0 0 C0.66 0.33 1.32 0.66 2 1 C0.8803014 2.00593243 -0.2459412 3.0045849 -1.375 4 C-2.00148438 4.556875 -2.62796875 5.11375 -3.2734375 5.6875 C-5 7 -5 7 -7 7 C-7.33 6.01 -7.66 5.02 -8 4 C-6.71349294 3.30289269 -5.42059335 2.61757124 -4.125 1.9375 C-3.40570313 1.55464844 -2.68640625 1.17179688 -1.9453125 0.77734375 C-1.30335938 0.52082031 -0.66140625 0.26429688 0 0 Z " fill="#B1B1B2" transform="translate(328,131)"/>
<path d="M0 0 C0.66 0.33 1.32 0.66 2 1 C1.67 1.33 1.34 1.66 1 2 C1.99 2.66 2.98 3.32 4 4 C0.37 4.33 -3.26 4.66 -7 5 C-4.51068299 2.51068299 -3.16125753 1.22371259 0 0 Z " fill="#B9B9BA" transform="translate(154,61)"/>
<path d="M0 0 C2.97 0.99 5.94 1.98 9 3 C8.01 3.99 7.02 4.98 6 6 C3.97945196 4.35830472 1.97956942 2.69088222 0 1 C0 0.67 0 0.34 0 0 Z " fill="#C5C5C6" transform="translate(110,132)"/>
<path d="M0 0 C4.40114397 0.50298788 6.71195019 2.08772731 10 5 C9.01 5.33 8.02 5.66 7 6 C5.17578125 5.0390625 5.17578125 5.0390625 3.3125 3.625 C2.68988281 3.16351563 2.06726563 2.70203125 1.42578125 2.2265625 C0.95527344 1.82179688 0.48476563 1.41703125 0 1 C0 0.67 0 0.34 0 0 Z " fill="#A9A9AB" transform="translate(321,67)"/>
<path d="M0 0 C2.1875 -0.3125 2.1875 -0.3125 5 0 C7.8125 2.5 7.8125 2.5 10 5 C6.08788267 3.84414715 3.1254959 2.64465038 0 0 Z " fill="#BABABB" transform="translate(120,140)"/>
<path d="M0 0 C2 1 2 1 3 3 C-2.75 6 -2.75 6 -5 6 C-5 5.34 -5 4.68 -5 4 C-3.37373596 2.61767557 -1.7074998 1.28062485 0 0 Z " fill="#B9B9BB" transform="translate(115,73)"/>
</svg>
